# AST/ASF file generated using VICON BodyLanguage
# -----------------------------------------------
:version 1.10
:name VICON
:units
  mass 1.0
  length 0.45
  angle deg
:documentation
   .ast/.asf automatically generated from VICON data using
   VICON BodyBuilder and BodyLanguage model FoxedUp or BRILLIANT.MOD
:root
   order TX TY TZ RX RY RZ
   axis XYZ
   position 0 0 0  
   orientation 0 0 0 
:bonedata
  begin
     id 1 
     name lhipjoint
     direction 0.690799 -0.707083 0.151096 
     length 2.54797 
     axis 0 0 0  XYZ
  end
  begin
     id 2 
     name lfemur
     direction 0.34202 -0.939693 0  
     length 7.21646  
     axis 0 0 20  XYZ
    dof rx ry rz
    limits (-160.0 20.0)
           (-70.0 70.0)
           (-60.0 70.0)
  end
  begin
     id 3 
     name ltibia
     direction 0.34202 -0.939693 0   
     length 8.16759   
     axis 0 0 20   XYZ
    dof rx
    limits (-10.0 170.0)
  end
  begin
     id 4 
     name lfoot
     direction 0.0487203 -0.133858 0.989802   
     length 1.93375   
     axis -90 7.62852e-016 20   XYZ
    dof rx rz
    limits (-45.0 90.0)
           (-70.0 20.0)
  end
  begin
     id 5 
     name ltoes
     direction 1.53453e-011 -4.21783e-011 1   
     length 0.979747   
     axis -90 7.62852e-016 20   XYZ
    dof rx
    limits (-90.0 20.0)
  end
  begin
     id 6 
     name rhipjoint
     direction -0.694693 -0.703425 0.150315   
     length 2.56122  
     axis 0 0 0  XYZ 
  end
  begin
     id 7 
     name rfemur
     direction -0.34202 -0.939693 0   
     length 7.36786   
     axis 0 0 -20   XYZ
    dof rx ry rz
    limits (-160.0 20.0)
           (-70.0 70.0)
           (-70.0 60.0)
  end
  begin
     id 8 
     name rtibia
     direction -0.34202 -0.939693 0   
     length 8.07288   
     axis 0 0 -20   XYZ
    dof rx
    limits (-10.0 170.0)
 end
 begin
     id 9 
     name rfoot
     direction -0.0428397 -0.117701 0.992125   
     length 1.88295  
     axis -90 -7.62852e-016 -20   XYZ
    dof rx rz
    limits (-45.0 90.0)
           (-20.0 70.0)
  end
  begin
     id 10 
     name rtoes
     direction -1.53456e-011 -4.2187e-011 1   
     length 0.955578   
     axis -90 -7.62852e-016 -20   XYZ
    dof rx
    limits (-90.0 20.0)
  end
  begin
     id 11 
     name lowerback
     direction 0.0288145 0.999398 -0.0193241   
     length 1.92149   
     axis 0 0 0   XYZ
    dof rx ry rz
    limits (-20.0 45.0)
           (-30.0 30.0)
           (-30.0 30.0)
  end
  begin
     id 12 
     name upperback
     direction 0.0233784 0.998099 0.0570278   
     length 1.90435   
     axis 0 0 0   XYZ
    dof rx ry rz
    limits (-20.0 45.0)
           (-30.0 30.0)
           (-30.0 30.0)
  end
  begin
     id 13 
     name thorax
     direction 0.0096694 0.997833 0.0650817   
     length 1.9111   
     axis 0 0 0   XYZ
    dof rx ry rz
    limits (-20.0 45.0)
           (-30.0 30.0)
           (-30.0 30.0)
  end
  begin
     id 14 
     name lowerneck
     direction 0.00516803 0.999916 0.0118722   
     length 1.74664   
     axis 0 0 0   XYZ
    dof rx ry rz
    limits (-20.0 45.0)
           (-30.0 30.0)
           (-30.0 30.0)
  end
  begin
     id 15 
     name upperneck
     direction -0.0510851 0.996117 -0.071696   
     length 1.68498   
     axis 0 0 0   XYZ
    dof rx ry rz
    limits (-20.0 45.0)
           (-30.0 30.0)
           (-30.0 30.0)
  end
  begin
     id 16
     name head
     direction -0.019188 0.999436 -0.0275702  
     length 1.83483  
     axis 0 0 0   XYZ
    dof rx ry rz
    limits (-20.0 45.0)
           (-30.0 30.0)
           (-30.0 30.0)
  end
  begin
     id 17 
     name lclavicle
     direction 0.967006 0.248456 -0.0562957  
     length 3.39395  
     axis 0 0 0   XYZ
    dof ry rz
    limits (-20.0 10.0)
           (0.0 20.0)
  end
  begin
     id 18 
     name lhumerus
     direction 1 -4.48962e-011 -5.62711e-019   
     length 5.24318   
     axis 180 -30 -90   XYZ
    dof rx ry rz
    limits (-60.0 90.0)
           (-90.0 90.0)
           (-90.0 90.0)
  end
  begin
     id 19
     name lradius
     direction 1 -4.48966e-011 7.90625e-027   
     length 2.98999   
     axis 180 -30 -90   XYZ
    dof rx
    limits (-10.0 170.0)
  end
  begin
     id 20
     name lwrist
     direction 1 -4.48959e-011 1.61068e-026   
     length 1.49499   
     axis -9.31229e-015 90 90   XYZ
    dof ry
    limits (-180.0 0.0)
 end
  begin
     id 21 
     name lhand
     direction 1 -4.49017e-011 3.22136e-026   
     length 0.726745   
     axis -2.0555e-014 90 90   XYZ
    dof rx rz
    limits (-90.0 90.0)
           (-45.0 45.0)
  end
  begin
     id 22 
     name lfingers
     direction 1 -4.4898e-011 6.44272e-026   
     length 0.58592   
     axis -4.11101e-014 90 90   XYZ
    dof rx
    limits (0.0 90.0)
  end
  begin
     id 23
     name lthumb
     direction 0.707107 -6.34922e-011 0.707107   
     length 0.841268   
     axis -90 45 2.85299e-015   XYZ
    dof rx rz
    limits (-45.0 45.0)
           (-45.0 45.0)
  end
  begin
     id 24 
     name rclavicle
     direction -0.972232 0.230238 0.0419005   
     length 3.40416  
     axis 0 0 0   XYZ 
    dof ry rz
    limits (-10.0 20.0)
           (-20.0 0.0)
  end
  begin
     id 25 
     name rhumerus
     direction -1 -4.48976e-011 2.48487e-027  
     length 5.37045   
     axis 180 30 90   XYZ
    dof rx ry rz
    limits (-90.0 60.0)
           (-90.0 90.0)
           (-90.0 90.0)
  end
  begin
     id 26 
     name rradius
     direction -1 -4.48942e-011 7.87951e-027   
     length 2.92792   
     axis 180 30 90   XYZ
    dof rx
    limits (-10.0 170.0)
  end
  begin
     id 27 
     name rwrist
     direction -1 -4.48969e-011 1.61068e-026   
     length 1.46396   
     axis -9.31229e-015 -90 -90   XYZ
    dof ry
    limits (-180.0 0.0)
  end
  begin
     id 28
     name rhand
     direction -1 -4.49043e-011 3.22136e-026   
     length 0.784497   
     axis -2.0555e-014 -90 -90   XYZ
    dof rx rz
    limits (-90.0 90.0)
           (-45.0 45.0)
  end
  begin
     id 29
     name rfingers
     direction -1 -4.48823e-011 6.44272e-026   
     length 0.632482   
     axis -4.11101e-014 -90 -90   XYZ
    dof rx
    limits (0.0 90.0)
  end
  begin
     id 30
     name rthumb
     direction -0.707107 -6.34923e-011 0.707107   
     length 0.908121   
     axis -90 -45 -2.85299e-015   XYZ
    dof rx rz
    limits (-45.0 45.0)
           (-45.0 45.0)
  end
:hierarchy
  begin
    root lhipjoint rhipjoint lowerback
    lhipjoint lfemur
    lfemur ltibia
    ltibia lfoot
    lfoot ltoes
    rhipjoint rfemur
    rfemur rtibia
    rtibia rfoot
    rfoot rtoes
    lowerback upperback
    upperback thorax
    thorax lowerneck lclavicle rclavicle
    lowerneck upperneck
    upperneck head
    lclavicle lhumerus
    lhumerus lradius
    lradius lwrist
    lwrist lhand lthumb
    lhand lfingers
    rclavicle rhumerus
    rhumerus rradius
    rradius rwrist
    rwrist rhand rthumb
    rhand rfingers
  end

#!OML:ASF E:\Style6\Style6.ASF
:FULLY-SPECIFIED
:DEGREES
1735
root -0.710615 15.0018 -0.801341 48.8761 64.0684 21.5288
lowerback 30.8147 4.62019 9.1253
upperback 3.73017 8.97228 -0.956959
thorax -10.3255 3.89589 -9.08757
lowerneck -13.4491 -8.97808 2.23922
upperneck -14.1871 -12.1192 -2.5671
head -2.69177 -5.95013 -1.38259
rclavicle 1.90833e-014 -3.18055e-015
rhumerus 85.2472 -8.67032 -75.1513
rradius 36.7508
rwrist 37.0676
rhand 12.5119 -1.88699
rfingers 7.12502
rthumb 37.5047 -27.8193
lclavicle 1.90833e-014 -3.18055e-015
lhumerus -48.4031 8.10842 70.8714
lradius 99.7592
lwrist 25.0254
lhand -22.7259 39.1516
lfingers 7.12502
lthumb 3.7078 69.0991
rfemur -99.1766 -55.4126 64.7542
rtibia 80.6799
rfoot -32.2947 -16.0596
rtoes -27.4645
lfemur -86.3423 -27.2398 -10.4538
ltibia 63.8356
lfoot 3.01531 -29.5089
ltoes 33.8628
1736
root -0.714757 14.9929 -0.799123 48.9968 64.2778 21.6259
lowerback 30.8862 4.61123 9.3215
upperback 3.67754 9.04012 -0.91188
thorax -10.3787 3.91299 -9.17326
lowerneck -13.3151 -9.05806 2.15502
upperneck -14.2791 -12.2101 -2.43922
head -2.73293 -5.99197 -1.31995
rclavicle 5.725e-014 -5.40694e-014
rhumerus 85.3624 -8.47531 -75.979
rradius 36.9047
rwrist 36.4573
rhand 11.6835 -1.88353
rfingers 7.12502
rthumb 36.7213 -28.0195
lclavicle 5.725e-014 -5.40694e-014
lhumerus -48.6021 8.13075 70.8868
lradius 99.7213
lwrist 25.0281
lhand -22.8837 40.2436
lfingers 7.12502
lthumb 3.55543 70.1937
rfemur -99.3739 -55.4705 64.9992
rtibia 80.7895
rfoot -32.3177 -16.1646
rtoes -27.6443
lfemur -86.4552 -27.2836 -10.3827
ltibia 63.9065
lfoot 3.05524 -29.6635
ltoes 33.9476
1737
root -0.718417 14.9832 -0.797301 49.3609 64.3767 21.9238
lowerback 30.8615 4.63821 9.40465
upperback 3.63036 9.10002 -0.91674
thorax -10.3958 3.93352 -9.24233
lowerneck -13.2112 -9.12225 2.18342
upperneck -14.3238 -12.301 -2.41044
head -2.76825 -6.0391 -1.30955
rclavicle -5.08889e-014 -6.99722e-014
rhumerus 85.5234 -8.2333 -77.108
rradius 37.0231
rwrist 35.747
rhand 10.592 -2.01519
rfingers 7.12502
rthumb 35.6876 -28.4078
lclavicle -5.08889e-014 -6.99722e-014
lhumerus -48.7104 8.06509 70.8981
lradius 99.602
lwrist 25.0835
lhand -23.0053 40.7059
lfingers 7.12502
lthumb 3.43797 70.6579
rfemur -99.6607 -55.4609 65.1345
rtibia 80.9207
rfoot -32.4434 -16.0204
rtoes -27.1003
lfemur -86.634 -27.3302 -10.4013
ltibia 63.9789
lfoot 3.17975 -29.7354
ltoes 34.1639
1738
root -0.72141 14.972 -0.794878 49.6799 64.4368 22.2168
lowerback 30.781 4.7 9.37495
upperback 3.65193 9.16931 -0.841909
thorax -10.3395 3.97299 -9.15826
lowerneck -13.215 -9.18917 2.19837
upperneck -14.3087 -12.4012 -2.48947
head -2.77344 -6.08946 -1.33837
rclavicle -9.54166e-014 -3.18055e-015
rhumerus 85.693 -8.00339 -77.6543
rradius 37.1185
rwrist 34.2184
rhand 9.23582 -2.2714
rfingers 7.12502
rthumb 34.4012 -28.9652
lclavicle -9.54166e-014 -3.18055e-015
lhumerus -48.7833 8.0634 70.9883
lradius 99.4759
lwrist 25.2115
lhand -22.9146 40.3264
lfingers 7.12502
lthumb 3.52553 70.277
rfemur -99.8429 -55.4579 65.1487
rtibia 81.0602
rfoot -32.6548 -15.5153
rtoes -25.2545
lfemur -86.7763 -27.3875 -10.4522
ltibia 64.0612
lfoot 3.32656 -29.7667
ltoes 34.308
1739
root -0.723861 14.9613 -0.793277 49.73 64.5554 22.2679
lowerback 30.6233 4.73116 9.36954
upperback 3.77887 9.21035 -0.661848
thorax -10.1504 4.01657 -8.94665
lowerneck -13.3098 -9.22739 2.1533
upperneck -14.3681 -12.4555 -2.60161
head -2.78692 -6.11082 -1.37088
rclavicle -1.55847e-013 -5.725e-014
rhumerus 85.9669 -7.66381 -77.8226
rradius 37.2068
rwrist 32.1968
rhand 7.66713 -2.58173
rfingers 7.12502
rthumb 32.9105 -29.6008
lclavicle -1.55847e-013 -5.725e-014
lhumerus -48.7678 8.3267 71.145
lradius 99.345
lwrist 25.3666
lhand -22.6969 39.8202
lfingers 7.12502
lthumb 3.7358 69.7672
rfemur -99.9226 -55.4683 65.2245
rtibia 81.1875
rfoot -32.6726 -15.4971
rtoes -24.8855
lfemur -86.86 -27.4073 -10.4214
ltibia 64.1491
lfoot 3.5274 -29.7856
ltoes 34.6865
1740
root -0.725931 14.9545 -0.792547 49.8536 64.5696 22.4529
lowerback 30.5832 4.76159 9.32946
upperback 3.872 9.24108 -0.564939
thorax -10.0447 4.04673 -8.81843
lowerneck -13.3734 -9.29002 2.10202
upperneck -14.3865 -12.5377 -2.64629
head -2.78629 -6.14846 -1.38033
rclavicle -3.81667e-014 2.8625e-014
rhumerus 86.1979 -7.35778 -78.053
rradius 37.2546
rwrist 29.7883
rhand 5.76217 -2.96357
rfingers 7.12502
rthumb 31.0967 -30.3466
lclavicle -3.81667e-014 2.8625e-014
lhumerus -48.8008 8.50835 71.3004
lradius 99.2454
lwrist 25.4483
lhand -22.7046 39.6472
lfingers 7.12502
lthumb 3.72837 69.5943
rfemur -99.9367 -55.5076 65.1006
rtibia 81.3098
rfoot -32.6502 -15.9149
rtoes -25.8054
lfemur -86.8472 -27.4383 -10.5428
ltibia 64.2127
lfoot 3.6551 -29.7966
ltoes 35.0538
1741
root -0.728883 14.949 -0.789755 50.0129 64.557 22.6763
lowerback 30.6192 4.80272 9.25587
upperback 3.89491 9.28035 -0.499315
thorax -10.0489 4.0683 -8.72407
lowerneck -13.2963 -9.36397 2.03301
upperneck -14.4557 -12.629 -2.59456
head -2.81729 -6.19068 -1.34766
rclavicle -9.54166e-014 -1.27222e-014
rhumerus 86.3417 -7.06791 -78.4344
rradius 37.2775
rwrist 26.9749
rhand 3.39658 -3.49778
rfingers 7.12502
rthumb 28.8394 -31.289
lclavicle -9.54166e-014 -1.27222e-014
lhumerus -48.9047 8.58104 71.4053
lradius 99.1992
lwrist 25.7112
lhand -22.8988 39.7352
lfingers 7.12502
lthumb 3.54086 69.6855
rfemur -99.9247 -55.5323 64.9258
rtibia 81.417
rfoot -32.7101 -16.1557
rtoes -26.0739
lfemur -86.7919 -27.4391 -10.7205
ltibia 64.2507
lfoot 3.96528 -29.8365
ltoes 35.5989
1742
root -0.731027 14.942 -0.78731 50.2654 64.6119 22.8872
lowerback 30.5563 4.81916 9.25408
upperback 3.88342 9.30425 -0.42486
thorax -10.042 4.07967 -8.64628
lowerneck -13.1689 -9.47241 1.88645
upperneck -14.585 -12.7519 -2.45011
head -2.86536 -6.24523 -1.26911
rclavicle -3.49861e-014 1.59028e-014
rhumerus 86.4688 -6.74315 -78.7957
rradius 37.3161
rwrist 23.6847
rhand 0.762162 -4.06753
rfingers 7.12502
rthumb 26.3202 -32.2614
lclavicle -3.49861e-014 1.59028e-014
lhumerus -48.9952 8.60201 71.4968
lradius 99.1249
lwrist 26.0038
lhand -23.1662 39.6228
lfingers 7.12502
lthumb 3.28264 69.5773
rfemur -100.095 -55.5161 64.9806
rtibia 81.5186
rfoot -32.7858 -16.1781
rtoes -25.8093
lfemur -86.8672 -27.4314 -10.8061
ltibia 64.2839
lfoot 4.11263 -29.9632
ltoes 35.8068
1743
root -0.733803 14.9355 -0.787498 50.3907 64.7097 22.983
lowerback 30.5091 4.80511 9.36977
upperback 3.89007 9.32799 -0.355062
thorax -10.0026 4.09094 -8.63278
lowerneck -13.1499 -9.59242 1.76712
upperneck -14.6633 -12.8914 -2.30963
head -2.8807 -6.31095 -1.20319
rclavicle -4.45278e-014 -1.90833e-014
rhumerus 86.6555 -6.42953 -79.1485
rradius 37.3714
rwrist 19.9772
rhand -1.55373 -4.13039
rfingers 7.12502
rthumb 24.1014 -32.6366
lclavicle -4.45278e-014 -1.90833e-014
lhumerus -49.0371 8.58982 71.5902
lradius 99.0721
lwrist 26.327
lhand -23.4218 39.5819
lfingers 7.12502
lthumb 3.0358 69.54
rfemur -100.171 -55.4891 65.0234
rtibia 81.6028
rfoot -32.8916 -16.0827
rtoes -25.25
lfemur -86.9397 -27.411 -10.8428
ltibia 64.3275
lfoot 4.29803 -30.0805
ltoes 35.8708
1744
root -0.735332 14.9307 -0.789193 50.3661 64.8051 22.9591
lowerback 30.4894 4.77099 9.53324
upperback 3.91178 9.34216 -0.299777
thorax -9.95025 4.09819 -8.6571
lowerneck -13.1808 -9.66848 1.81168
upperneck -14.7104 -13.0005 -2.29834
head -2.89848 -6.36836 -1.20742
rclavicle -2.54444e-014 2.22639e-014
rhumerus 86.8658 -6.09511 -79.5918
rradius 37.4971
rwrist 16.0663
rhand -3.70479 -3.97277
rfingers 7.12502
rthumb 22.0374 -32.7372
lclavicle -2.54444e-014 2.22639e-014
lhumerus -49.0457 8.63237 71.6434
lradius 99.0264
lwrist 26.6036
lhand -23.5937 39.8074
lfingers 7.12502
lthumb 2.86976 69.7679
rfemur -100.15 -55.4768 65.0316
rtibia 81.6737
rfoot -32.9956 -16.0056
rtoes -24.7446
lfemur -86.9702 -27.3737 -10.8545
ltibia 64.3829
lfoot 4.47787 -30.134
ltoes 36.1423
1745
root -0.736692 14.927 -0.79012 50.3468 64.8167 22.9875
lowerback 30.4914 4.78542 9.58937
upperback 3.95265 9.38566 -0.232542
thorax -9.89917 4.12328 -8.62312
lowerneck -13.1371 -9.77183 1.84049
upperneck -14.8127 -13.1496 -2.31313
head -2.95028 -6.44311 -1.21222
rclavicle 2.22639e-014 -1.90833e-014
rhumerus 87.0311 -5.77161 -79.9807
rradius 37.6714
rwrist 12.0643
rhand -6.3758 -4.10347
rfingers 7.12502
rthumb 19.4711 -33.1485
lclavicle 2.22639e-014 -1.90833e-014
lhumerus -49.0655 8.68583 71.7552
lradius 98.9876
lwrist 26.7735
lhand -23.6997 39.9196
lfingers 7.12502
lthumb 2.76734 69.8814
rfemur -100.044 -55.4649 64.8829
rtibia 81.7448
rfoot -33.0873 -16.0468
rtoes -24.5722
lfemur -86.9428 -27.3491 -10.9495
ltibia 64.4343
lfoot 4.61461 -30.158
ltoes 36.4224
1746
root -0.737916 14.9192 -0.790538 50.4854 64.7824 23.1164
lowerback 30.45 4.83841 9.58303
upperback 3.95551 9.45381 -0.168103
thorax -9.87678 4.15706 -8.56766
lowerneck -12.9998 -9.92138 1.74597
upperneck -14.9244 -13.3436 -2.25246
head -3.00646 -6.53514 -1.16847
rclavicle 1.27222e-014 -4.45278e-014
rhumerus 87.13 -5.54186 -80.2385
rradius 37.9461
rwrist 7.93118
rhand -9.17667 -4.41407
rfingers 7.12502
rthumb 16.7764 -33.7093
lclavicle 1.27222e-014 -4.45278e-014
lhumerus -49.1027 8.69846 71.9025
lradius 98.9503
lwrist 26.8401
lhand -23.8172 39.8727
lfingers 7.12502
lthumb 2.65388 69.836
rfemur -100.086 -55.4082 64.763
rtibia 81.8374
rfoot -33.1428 -16.0831
rtoes -24.4663
lfemur -86.985 -27.3248 -11.0665
ltibia 64.4715
lfoot 4.78501 -30.1533
ltoes 36.7114
1747
root -0.737279 14.9142 -0.792054 50.5481 64.7982 23.1524
lowerback 30.3815 4.85862 9.67417
upperback 3.95581 9.5113 -0.0881911
thorax -9.83445 4.1846 -8.53947
lowerneck -12.7106 -10.0456 1.67245
upperneck -15.2018 -13.5103 -2.18987
head -3.14654 -6.61021 -1.11414
rclavicle -8.26944e-014 6.36111e-014
rhumerus 87.271 -5.31245 -80.6979
rradius 38.2732
rwrist 4.38554
rhand -11.4522 -4.63249
rfingers 7.12502
rthumb 14.5848 -34.0997
lclavicle -8.26944e-014 6.36111e-014
lhumerus -49.1096 8.69588 72.015
lradius 98.9152
lwrist 26.8434
lhand -23.8765 39.9191
lfingers 7.12502
lthumb 2.59663 69.883
rfemur -100.126 -55.3578 64.7531
rtibia 81.9034
rfoot -33.0827 -16.3946
rtoes -25.3597
lfemur -87.0146 -27.2715 -11.1416
ltibia 64.4961
lfoot 4.93608 -30.207
ltoes 36.8851
1748
root -0.737317 14.9134 -0.794395 50.6183 64.7433 23.277
lowerback 30.4051 4.86489 9.68054
upperback 3.97876 9.52997 -0.0305043
thorax -9.82382 4.19523 -8.48697
lowerneck -12.541 -10.0951 1.88808
upperneck -15.4359 -13.6267 -2.36348
head -3.2943 -6.67148 -1.18701
rclavicle 1.30403e-013 -9.54166e-015
rhumerus 87.4184 -5.00921 -81.2333
rradius 38.7016
rwrist 1.10603
rhand -13.4168 -5.0913
rfingers 7.12502
rthumb 12.6914 -34.6857
lclavicle 1.30403e-013 -9.54166e-015
lhumerus -49.034 8.68481 72.079
lradius 98.8328
lwrist 26.8481
lhand -24.0305 39.9141
lfingers 7.12502
lthumb 2.44787 69.8798
rfemur -99.9931 -55.3381 64.4965
rtibia 81.9559
rfoot -33.2701 -16.2471
rtoes -24.7495
lfemur -86.9197 -27.2336 -11.3356
ltibia 64.486
lfoot 5.06175 -30.2403
ltoes 36.9875
